<?xml version="1.0" encoding="UTF-8" standalone="no"?>
<!DOCTYPE svg PUBLIC "-//W3C//DTD SVG 1.1//EN"
 "http://www.w3.org/Graphics/SVG/1.1/DTD/svg11.dtd">
<!-- Generated by graphviz version 12.1.1 (20240910.0053)
 -->
<!-- Pages: 1 -->
<svg width="427pt" height="632pt"
 viewBox="0.00 0.00 427.00 631.50" xmlns="http://www.w3.org/2000/svg" xmlns:xlink="http://www.w3.org/1999/xlink">
<g id="graph0" class="graph" transform="scale(1 1) rotate(0) translate(4 627.5)">
<polygon fill="white" stroke="none" points="-4,4 -4,-627.5 423,-627.5 423,4 -4,4"/>
<g id="clust1" class="cluster">
<title>cluster_0</title>
<polygon fill="none" stroke="black" stroke-dasharray="5,2" points="8,-311.39 8,-456.5 198,-456.5 198,-311.39 8,-311.39"/>
<text text-anchor="middle" x="103.38" y="-441.1" font-family="Times New Roman,serif" font-size="12.00">AND Group: Just (Total Prob.: 0.30)</text>
</g>
<g id="clust2" class="cluster">
<title>cluster_1</title>
<polygon fill="none" stroke="black" stroke-dasharray="5,2" points="210,-8 210,-82.25 411,-82.25 411,-8 210,-8"/>
<text text-anchor="middle" x="310.62" y="-66.85" font-family="Times New Roman,serif" font-size="12.00">AND Group: Name (Total Prob.: 0.20)</text>
</g>
<!-- e373b305&#45;49f6&#45;4594&#45;a2d5&#45;aa8c0e5e1851 -->
<g id="node1" class="node">
<title>e373b305&#45;49f6&#45;4594&#45;a2d5&#45;aa8c0e5e1851</title>
<polygon fill="none" stroke="black" points="240,-623.5 186,-623.5 186,-587.5 240,-587.5 240,-623.5"/>
<text text-anchor="start" x="198" y="-601.45" font-family="Times New Roman,serif" font-weight="bold" font-size="14.00">Node</text>
</g>
<!-- 97ae38bc&#45;4f8b&#45;47fa&#45;98aa&#45;dc42f1e52bfb -->
<g id="node2" class="node">
<title>97ae38bc&#45;4f8b&#45;47fa&#45;98aa&#45;dc42f1e52bfb</title>
<polygon fill="none" stroke="black" points="140.88,-535 49.12,-535 49.12,-499 140.88,-499 140.88,-535"/>
<text text-anchor="start" x="76.62" y="-518.7" font-family="Times New Roman,serif" font-weight="bold" font-size="14.00">Aaron</text>
<text text-anchor="start" x="57.12" y="-504.7" font-family="Times New Roman,serif" font-size="14.00">OS: Windows</text>
</g>
<!-- e373b305&#45;49f6&#45;4594&#45;a2d5&#45;aa8c0e5e1851&#45;&gt;97ae38bc&#45;4f8b&#45;47fa&#45;98aa&#45;dc42f1e52bfb -->
<g id="edge3" class="edge">
<title>e373b305&#45;49f6&#45;4594&#45;a2d5&#45;aa8c0e5e1851&#45;&gt;97ae38bc&#45;4f8b&#45;47fa&#45;98aa&#45;dc42f1e52bfb</title>
<path fill="none" stroke="black" d="M189.4,-587.2C171.72,-574.24 147.3,-556.34 127.72,-541.99"/>
<polygon fill="black" stroke="black" points="129.91,-539.25 119.78,-536.16 125.77,-544.9 129.91,-539.25"/>
<text text-anchor="middle" x="173.19" y="-556.2" font-family="Times New Roman,serif" font-size="14.00">0,2</text>
</g>
<!-- a4978918&#45;fb3a&#45;42f1&#45;afba&#45;beaef9c4e521 -->
<g id="node3" class="node">
<title>a4978918&#45;fb3a&#45;42f1&#45;afba&#45;beaef9c4e521</title>
<polygon fill="none" stroke="black" points="213,-535 159,-535 159,-499 213,-499 213,-535"/>
<text text-anchor="start" x="168.75" y="-512.95" font-family="Times New Roman,serif" font-weight="bold" font-size="14.00">Detlef</text>
</g>
<!-- e373b305&#45;49f6&#45;4594&#45;a2d5&#45;aa8c0e5e1851&#45;&gt;a4978918&#45;fb3a&#45;42f1&#45;afba&#45;beaef9c4e521 -->
<g id="edge4" class="edge">
<title>e373b305&#45;49f6&#45;4594&#45;a2d5&#45;aa8c0e5e1851&#45;&gt;a4978918&#45;fb3a&#45;42f1&#45;afba&#45;beaef9c4e521</title>
<path fill="none" stroke="black" d="M207.67,-587.41C203.99,-575.64 199.03,-559.73 194.77,-546.11"/>
<polygon fill="black" stroke="black" points="198.19,-545.3 191.87,-536.79 191.51,-547.38 198.19,-545.3"/>
<text text-anchor="middle" x="210.54" y="-556.2" font-family="Times New Roman,serif" font-size="14.00">0,2</text>
</g>
<!-- 85b186cc&#45;45cc&#45;4e05&#45;a44c&#45;484f5f3d96e0 -->
<g id="node4" class="node">
<title>85b186cc&#45;45cc&#45;4e05&#45;a44c&#45;484f5f3d96e0</title>
<polygon fill="none" stroke="black" points="270.38,-337.75 205.62,-337.75 205.62,-301.75 270.38,-301.75 270.38,-337.75"/>
<text text-anchor="start" x="213.62" y="-315.7" font-family="Times New Roman,serif" font-weight="bold" font-size="14.00">Dietram</text>
</g>
<!-- e373b305&#45;49f6&#45;4594&#45;a2d5&#45;aa8c0e5e1851&#45;&gt;85b186cc&#45;45cc&#45;4e05&#45;a44c&#45;484f5f3d96e0 -->
<g id="edge5" class="edge">
<title>e373b305&#45;49f6&#45;4594&#45;a2d5&#45;aa8c0e5e1851&#45;&gt;85b186cc&#45;45cc&#45;4e05&#45;a44c&#45;484f5f3d96e0</title>
<path fill="none" stroke="black" d="M218.74,-587.23C220.39,-581.63 222,-575.36 223,-569.5 236.48,-490.62 238.31,-395.86 238.29,-349.35"/>
<polygon fill="black" stroke="black" points="241.79,-349.59 238.25,-339.6 234.79,-349.61 241.79,-349.59"/>
<text text-anchor="middle" x="243.27" y="-467.7" font-family="Times New Roman,serif" font-size="14.00">0,3</text>
</g>
<!-- 596eac6d&#45;db2e&#45;402b&#45;89d0&#45;9fdc2ded63c1 -->
<g id="node5" class="node">
<title>596eac6d&#45;db2e&#45;402b&#45;89d0&#45;9fdc2ded63c1</title>
<polygon fill="none" stroke="black" points="334,-426.25 280,-426.25 280,-390.25 334,-390.25 334,-426.25"/>
<text text-anchor="start" x="293.88" y="-404.2" font-family="Times New Roman,serif" font-weight="bold" font-size="14.00">Eike</text>
</g>
<!-- e373b305&#45;49f6&#45;4594&#45;a2d5&#45;aa8c0e5e1851&#45;&gt;596eac6d&#45;db2e&#45;402b&#45;89d0&#45;9fdc2ded63c1 -->
<g id="edge6" class="edge">
<title>e373b305&#45;49f6&#45;4594&#45;a2d5&#45;aa8c0e5e1851&#45;&gt;596eac6d&#45;db2e&#45;402b&#45;89d0&#45;9fdc2ded63c1</title>
<path fill="none" stroke="black" d="M238.35,-587.27C244.47,-582.14 250.53,-576.1 255,-569.5 282.74,-528.51 296.53,-471.69 302.69,-437.88"/>
<polygon fill="black" stroke="black" points="306.14,-438.47 304.37,-428.03 299.24,-437.29 306.14,-438.47"/>
<text text-anchor="middle" x="295.76" y="-511.95" font-family="Times New Roman,serif" font-size="14.00">0,3</text>
</g>
<!-- 58b00d45&#45;5ae7&#45;41dd&#45;98c3&#45;b83e29427a85 -->
<g id="node6" class="node">
<title>58b00d45&#45;5ae7&#45;41dd&#45;98c3&#45;b83e29427a85</title>
<polygon fill="none" stroke="black" points="94,-426.25 40,-426.25 40,-390.25 94,-390.25 94,-426.25"/>
<text text-anchor="start" x="48.62" y="-404.2" font-family="Times New Roman,serif" font-weight="bold" font-size="14.00">Justus</text>
</g>
<!-- 97ae38bc&#45;4f8b&#45;47fa&#45;98aa&#45;dc42f1e52bfb&#45;&gt;58b00d45&#45;5ae7&#45;41dd&#45;98c3&#45;b83e29427a85 -->
<g id="edge7" class="edge">
<title>97ae38bc&#45;4f8b&#45;47fa&#45;98aa&#45;dc42f1e52bfb&#45;&gt;58b00d45&#45;5ae7&#45;41dd&#45;98c3&#45;b83e29427a85</title>
<path fill="none" stroke="black" d="M90.5,-498.85C86.18,-482.37 79.57,-457.18 74.46,-437.69"/>
<polygon fill="black" stroke="black" points="77.89,-436.96 71.96,-428.18 71.12,-438.74 77.89,-436.96"/>
<text text-anchor="middle" x="93.77" y="-467.7" font-family="Times New Roman,serif" font-size="14.00">0,1</text>
</g>
<!-- e983b196&#45;60f7&#45;4eac&#45;bf27&#45;9666ba548a12 -->
<g id="node7" class="node">
<title>e983b196&#45;60f7&#45;4eac&#45;bf27&#45;9666ba548a12</title>
<polygon fill="none" stroke="black" points="189.75,-426.25 112.25,-426.25 112.25,-390.25 189.75,-390.25 189.75,-426.25"/>
<text text-anchor="start" x="120.25" y="-404.2" font-family="Times New Roman,serif" font-weight="bold" font-size="14.00">Leonhardt</text>
</g>
<!-- 97ae38bc&#45;4f8b&#45;47fa&#45;98aa&#45;dc42f1e52bfb&#45;&gt;e983b196&#45;60f7&#45;4eac&#45;bf27&#45;9666ba548a12 -->
<g id="edge8" class="edge">
<title>97ae38bc&#45;4f8b&#45;47fa&#45;98aa&#45;dc42f1e52bfb&#45;&gt;e983b196&#45;60f7&#45;4eac&#45;bf27&#45;9666ba548a12</title>
<path fill="none" stroke="black" d="M104,-498.85C112.76,-482.14 126.23,-456.46 136.51,-436.87"/>
<polygon fill="black" stroke="black" points="139.59,-438.54 141.14,-428.05 133.39,-435.28 139.59,-438.54"/>
<text text-anchor="middle" x="129.95" y="-467.7" font-family="Times New Roman,serif" font-size="14.00">0,2</text>
</g>
<!-- e3e6d992&#45;0dff&#45;4976&#45;bc24&#45;79cb2bafc33a -->
<g id="node9" class="node">
<title>e3e6d992&#45;0dff&#45;4976&#45;bc24&#45;79cb2bafc33a</title>
<polygon fill="none" stroke="black" points="272.38,-249.25 207.62,-249.25 207.62,-213.25 272.38,-213.25 272.38,-249.25"/>
<text text-anchor="start" x="215.62" y="-227.2" font-family="Times New Roman,serif" font-weight="bold" font-size="14.00">Siegenot</text>
</g>
<!-- 85b186cc&#45;45cc&#45;4e05&#45;a44c&#45;484f5f3d96e0&#45;&gt;e3e6d992&#45;0dff&#45;4976&#45;bc24&#45;79cb2bafc33a -->
<g id="edge13" class="edge">
<title>85b186cc&#45;45cc&#45;4e05&#45;a44c&#45;484f5f3d96e0&#45;&gt;e3e6d992&#45;0dff&#45;4976&#45;bc24&#45;79cb2bafc33a</title>
<path fill="none" stroke="black" d="M237.6,-301.58C237.45,-291.56 237.38,-278.69 237.75,-267.25 237.82,-265.19 237.9,-263.07 238.01,-260.94"/>
<polygon fill="black" stroke="black" points="241.49,-261.38 238.57,-251.2 234.5,-260.98 241.49,-261.38"/>
<text text-anchor="middle" x="246.38" y="-270.45" font-family="Times New Roman,serif" font-size="14.00">0,5</text>
</g>
<!-- 3663dd37&#45;8ae4&#45;44c6&#45;8b09&#45;e840fcb817b6 -->
<g id="node12" class="node">
<title>3663dd37&#45;8ae4&#45;44c6&#45;8b09&#45;e840fcb817b6</title>
<polygon fill="none" stroke="black" points="189.12,-249.25 116.88,-249.25 116.88,-213.25 189.12,-213.25 189.12,-249.25"/>
<text text-anchor="start" x="124.88" y="-227.2" font-family="Times New Roman,serif" font-weight="bold" font-size="14.00">Wilbrand</text>
</g>
<!-- 85b186cc&#45;45cc&#45;4e05&#45;a44c&#45;484f5f3d96e0&#45;&gt;3663dd37&#45;8ae4&#45;44c6&#45;8b09&#45;e840fcb817b6 -->
<g id="edge19" class="edge">
<title>85b186cc&#45;45cc&#45;4e05&#45;a44c&#45;484f5f3d96e0&#45;&gt;3663dd37&#45;8ae4&#45;44c6&#45;8b09&#45;e840fcb817b6</title>
<path fill="none" stroke="black" d="M221.21,-301.66C208.83,-289.07 191.8,-271.73 177.85,-257.54"/>
<polygon fill="black" stroke="black" points="180.62,-255.36 171.11,-250.68 175.62,-260.27 180.62,-255.36"/>
<text text-anchor="middle" x="206.49" y="-270.45" font-family="Times New Roman,serif" font-size="14.00">0</text>
</g>
<!-- 14695da4&#45;ba04&#45;49af&#45;aeeb&#45;0e54aba2e414 -->
<g id="node8" class="node">
<title>14695da4&#45;ba04&#45;49af&#45;aeeb&#45;0e54aba2e414</title>
<polygon fill="none" stroke="black" points="343,-337.75 289,-337.75 289,-301.75 343,-301.75 343,-337.75"/>
<text text-anchor="start" x="299.88" y="-315.7" font-family="Times New Roman,serif" font-weight="bold" font-size="14.00">Seppl</text>
</g>
<!-- 596eac6d&#45;db2e&#45;402b&#45;89d0&#45;9fdc2ded63c1&#45;&gt;14695da4&#45;ba04&#45;49af&#45;aeeb&#45;0e54aba2e414 -->
<g id="edge9" class="edge">
<title>596eac6d&#45;db2e&#45;402b&#45;89d0&#45;9fdc2ded63c1&#45;&gt;14695da4&#45;ba04&#45;49af&#45;aeeb&#45;0e54aba2e414</title>
<path fill="none" stroke="black" d="M308.78,-390.16C309.99,-378.51 311.63,-362.8 313.03,-349.27"/>
<polygon fill="black" stroke="black" points="316.48,-349.91 314.04,-339.61 309.52,-349.19 316.48,-349.91"/>
<text text-anchor="middle" x="315.68" y="-358.95" font-family="Times New Roman,serif" font-size="14.00">1</text>
</g>
<!-- dummy_0 -->
<g id="node17" class="node">
<title>dummy_0</title>
<ellipse fill="black" stroke="black" cx="151" cy="-319.75" rx="0.36" ry="0.36"/>
</g>
<!-- 58b00d45&#45;5ae7&#45;41dd&#45;98c3&#45;b83e29427a85&#45;&gt;dummy_0 -->
<g id="edge1" class="edge">
<title>58b00d45&#45;5ae7&#45;41dd&#45;98c3&#45;b83e29427a85&#45;&gt;dummy_0</title>
<path fill="none" stroke="black" d="M83.6,-390.16C101.57,-371.65 129.48,-342.91 143.05,-328.94"/>
<polygon fill="black" stroke="black" points="145.37,-331.58 149.82,-321.96 140.34,-326.7 145.37,-331.58"/>
</g>
<!-- e983b196&#45;60f7&#45;4eac&#45;bf27&#45;9666ba548a12&#45;&gt;dummy_0 -->
<g id="edge2" class="edge">
<title>e983b196&#45;60f7&#45;4eac&#45;bf27&#45;9666ba548a12&#45;&gt;dummy_0</title>
<path fill="none" stroke="black" d="M151,-390.16C151,-372.99 151,-347.01 151,-332.18"/>
<polygon fill="black" stroke="black" points="154.5,-332.39 151,-322.39 147.5,-332.39 154.5,-332.39"/>
</g>
<!-- 14695da4&#45;ba04&#45;49af&#45;aeeb&#45;0e54aba2e414&#45;&gt;e3e6d992&#45;0dff&#45;4976&#45;bc24&#45;79cb2bafc33a -->
<g id="edge10" class="edge">
<title>14695da4&#45;ba04&#45;49af&#45;aeeb&#45;0e54aba2e414&#45;&gt;e3e6d992&#45;0dff&#45;4976&#45;bc24&#45;79cb2bafc33a</title>
<path fill="none" stroke="black" d="M300.98,-301.66C290.02,-289.18 274.97,-272.05 262.57,-257.93"/>
<polygon fill="black" stroke="black" points="265.47,-255.94 256.24,-250.74 260.21,-260.56 265.47,-255.94"/>
<text text-anchor="middle" x="293.43" y="-270.45" font-family="Times New Roman,serif" font-size="14.00">0,2</text>
</g>
<!-- e0a993f5&#45;1e95&#45;42a4&#45;9fa0&#45;e0a3215d2d68 -->
<g id="node10" class="node">
<title>e0a993f5&#45;1e95&#45;42a4&#45;9fa0&#45;e0a3215d2d68</title>
<polygon fill="none" stroke="black" points="344,-249.25 290,-249.25 290,-213.25 344,-213.25 344,-249.25"/>
<text text-anchor="start" x="298.62" y="-227.2" font-family="Times New Roman,serif" font-weight="bold" font-size="14.00">Stefan</text>
</g>
<!-- 14695da4&#45;ba04&#45;49af&#45;aeeb&#45;0e54aba2e414&#45;&gt;e0a993f5&#45;1e95&#45;42a4&#45;9fa0&#45;e0a3215d2d68 -->
<g id="edge11" class="edge">
<title>14695da4&#45;ba04&#45;49af&#45;aeeb&#45;0e54aba2e414&#45;&gt;e0a993f5&#45;1e95&#45;42a4&#45;9fa0&#45;e0a3215d2d68</title>
<path fill="none" stroke="black" d="M316.2,-301.66C316.33,-290.01 316.51,-274.3 316.67,-260.77"/>
<polygon fill="black" stroke="black" points="320.17,-261.15 316.78,-251.11 313.17,-261.07 320.17,-261.15"/>
<text text-anchor="middle" x="325.21" y="-270.45" font-family="Times New Roman,serif" font-size="14.00">0,5</text>
</g>
<!-- b283e2f5&#45;a342&#45;4ad3&#45;93c0&#45;1dbf775e89d3 -->
<g id="node11" class="node">
<title>b283e2f5&#45;a342&#45;4ad3&#45;93c0&#45;1dbf775e89d3</title>
<polygon fill="none" stroke="black" points="417.5,-249.25 362.5,-249.25 362.5,-213.25 417.5,-213.25 417.5,-249.25"/>
<text text-anchor="start" x="370.5" y="-227.2" font-family="Times New Roman,serif" font-weight="bold" font-size="14.00"> Xaver</text>
</g>
<!-- 14695da4&#45;ba04&#45;49af&#45;aeeb&#45;0e54aba2e414&#45;&gt;b283e2f5&#45;a342&#45;4ad3&#45;93c0&#45;1dbf775e89d3 -->
<g id="edge12" class="edge">
<title>14695da4&#45;ba04&#45;49af&#45;aeeb&#45;0e54aba2e414&#45;&gt;b283e2f5&#45;a342&#45;4ad3&#45;93c0&#45;1dbf775e89d3</title>
<path fill="none" stroke="black" d="M330.62,-301.66C341.19,-289.3 355.67,-272.38 367.68,-258.33"/>
<polygon fill="black" stroke="black" points="370.33,-260.62 374.17,-250.75 365.01,-256.07 370.33,-260.62"/>
<text text-anchor="middle" x="368.25" y="-270.45" font-family="Times New Roman,serif" font-size="14.00">0,1</text>
</g>
<!-- 44c1ff13&#45;9723&#45;43fc&#45;8545&#45;d4102fcd6b02 -->
<g id="node13" class="node">
<title>44c1ff13&#45;9723&#45;43fc&#45;8545&#45;d4102fcd6b02</title>
<polygon fill="none" stroke="black" points="334,-160.75 280,-160.75 280,-124.75 334,-124.75 334,-160.75"/>
<text text-anchor="start" x="294.25" y="-138.7" font-family="Times New Roman,serif" font-weight="bold" font-size="14.00">Jens</text>
</g>
<!-- b283e2f5&#45;a342&#45;4ad3&#45;93c0&#45;1dbf775e89d3&#45;&gt;44c1ff13&#45;9723&#45;43fc&#45;8545&#45;d4102fcd6b02 -->
<g id="edge18" class="edge">
<title>b283e2f5&#45;a342&#45;4ad3&#45;93c0&#45;1dbf775e89d3&#45;&gt;44c1ff13&#45;9723&#45;43fc&#45;8545&#45;d4102fcd6b02</title>
<path fill="none" stroke="black" d="M373.6,-213.16C361.52,-200.57 344.88,-183.23 331.26,-169.04"/>
<polygon fill="black" stroke="black" points="334.15,-166.98 324.7,-162.19 329.09,-171.83 334.15,-166.98"/>
<text text-anchor="middle" x="364.56" y="-181.95" font-family="Times New Roman,serif" font-size="14.00">0,5</text>
</g>
<!-- 3663dd37&#45;8ae4&#45;44c6&#45;8b09&#45;e840fcb817b6&#45;&gt;44c1ff13&#45;9723&#45;43fc&#45;8545&#45;d4102fcd6b02 -->
<g id="edge15" class="edge">
<title>3663dd37&#45;8ae4&#45;44c6&#45;8b09&#45;e840fcb817b6&#45;&gt;44c1ff13&#45;9723&#45;43fc&#45;8545&#45;d4102fcd6b02</title>
<path fill="none" stroke="black" d="M183.79,-212.95C208.51,-199.07 243.31,-179.52 269.63,-164.74"/>
<polygon fill="black" stroke="black" points="271.29,-167.82 278.29,-159.87 267.86,-161.72 271.29,-167.82"/>
<text text-anchor="middle" x="252.42" y="-181.95" font-family="Times New Roman,serif" font-size="14.00">0,4</text>
</g>
<!-- 15395c66&#45;0f89&#45;477a&#45;b511&#45;fc16d1a43eae -->
<g id="node16" class="node">
<title>15395c66&#45;0f89&#45;477a&#45;b511&#45;fc16d1a43eae</title>
<polygon fill="none" stroke="black" points="180,-160.75 126,-160.75 126,-124.75 180,-124.75 180,-160.75"/>
<text text-anchor="start" x="142.88" y="-138.7" font-family="Times New Roman,serif" font-weight="bold" font-size="14.00">test</text>
</g>
<!-- 3663dd37&#45;8ae4&#45;44c6&#45;8b09&#45;e840fcb817b6&#45;&gt;15395c66&#45;0f89&#45;477a&#45;b511&#45;fc16d1a43eae -->
<g id="edge20" class="edge">
<title>3663dd37&#45;8ae4&#45;44c6&#45;8b09&#45;e840fcb817b6&#45;&gt;15395c66&#45;0f89&#45;477a&#45;b511&#45;fc16d1a43eae</title>
<path fill="none" stroke="black" d="M153,-213.16C153,-201.51 153,-185.8 153,-172.27"/>
<polygon fill="black" stroke="black" points="156.5,-172.61 153,-162.61 149.5,-172.61 156.5,-172.61"/>
<text text-anchor="middle" x="156.38" y="-181.95" font-family="Times New Roman,serif" font-size="14.00">0</text>
</g>
<!-- e6e84890&#45;656c&#45;443b&#45;90b2&#45;5c58590a87e0 -->
<g id="node14" class="node">
<title>e6e84890&#45;656c&#45;443b&#45;90b2&#45;5c58590a87e0</title>
<polygon fill="none" stroke="black" points="284,-52 230,-52 230,-16 284,-16 284,-52"/>
<text text-anchor="start" x="238.62" y="-29.95" font-family="Times New Roman,serif" font-weight="bold" font-size="14.00">Guido</text>
</g>
<!-- 44c1ff13&#45;9723&#45;43fc&#45;8545&#45;d4102fcd6b02&#45;&gt;e6e84890&#45;656c&#45;443b&#45;90b2&#45;5c58590a87e0 -->
<g id="edge16" class="edge">
<title>44c1ff13&#45;9723&#45;43fc&#45;8545&#45;d4102fcd6b02&#45;&gt;e6e84890&#45;656c&#45;443b&#45;90b2&#45;5c58590a87e0</title>
<path fill="none" stroke="black" d="M298.97,-124.6C291.14,-107.89 279.11,-82.21 269.94,-62.62"/>
<polygon fill="black" stroke="black" points="273.23,-61.41 265.82,-53.83 266.89,-64.37 273.23,-61.41"/>
<text text-anchor="middle" x="298.02" y="-93.45" font-family="Times New Roman,serif" font-size="14.00">0,1</text>
</g>
<!-- a5538644&#45;b2b0&#45;4a3d&#45;ad05&#45;28d8b994f81e -->
<g id="node15" class="node">
<title>a5538644&#45;b2b0&#45;4a3d&#45;ad05&#45;28d8b994f81e</title>
<polygon fill="none" stroke="black" points="390.38,-52 301.62,-52 301.62,-16 390.38,-16 390.38,-52"/>
<text text-anchor="start" x="309.62" y="-29.95" font-family="Times New Roman,serif" font-weight="bold" font-size="14.00">Hieronymus</text>
</g>
<!-- 44c1ff13&#45;9723&#45;43fc&#45;8545&#45;d4102fcd6b02&#45;&gt;a5538644&#45;b2b0&#45;4a3d&#45;ad05&#45;28d8b994f81e -->
<g id="edge17" class="edge">
<title>44c1ff13&#45;9723&#45;43fc&#45;8545&#45;d4102fcd6b02&#45;&gt;a5538644&#45;b2b0&#45;4a3d&#45;ad05&#45;28d8b994f81e</title>
<path fill="none" stroke="black" d="M313.27,-124.6C319.31,-108.04 328.58,-82.69 335.71,-63.17"/>
<polygon fill="black" stroke="black" points="338.96,-64.48 339.1,-53.88 332.38,-62.08 338.96,-64.48"/>
<text text-anchor="middle" x="333.96" y="-93.45" font-family="Times New Roman,serif" font-size="14.00">0,1</text>
</g>
<!-- dummy_0&#45;&gt;3663dd37&#45;8ae4&#45;44c6&#45;8b09&#45;e840fcb817b6 -->
<g id="edge14" class="edge">
<title>dummy_0&#45;&gt;3663dd37&#45;8ae4&#45;44c6&#45;8b09&#45;e840fcb817b6</title>
<path fill="none" stroke="black" d="M151,-318.69C151.04,-317.1 151.77,-285.53 152.34,-261"/>
<polygon fill="black" stroke="black" points="155.83,-261.27 152.56,-251.2 148.83,-261.11 155.83,-261.27"/>
<text text-anchor="middle" x="160.8" y="-270.45" font-family="Times New Roman,serif" font-size="14.00">0,2</text>
</g>
</g>
</svg>
