<?xml version="1.0" encoding="UTF-8" standalone="no"?>
<!DOCTYPE svg PUBLIC "-//W3C//DTD SVG 1.1//EN"
 "http://www.w3.org/Graphics/SVG/1.1/DTD/svg11.dtd">
<!-- Generated by graphviz version 12.1.1 (20240910.0053)
 -->
<!-- Pages: 1 -->
<svg width="254pt" height="315pt"
 viewBox="0.00 0.00 253.96 315.00" xmlns="http://www.w3.org/2000/svg" xmlns:xlink="http://www.w3.org/1999/xlink">
<g id="graph0" class="graph" transform="scale(1 1) rotate(0) translate(4 311)">
<polygon fill="white" stroke="none" points="-4,4 -4,-311 249.96,-311 249.96,4 -4,4"/>
<text text-anchor="start" x="11" y="-52.2" font-family="Times New Roman,serif" font-weight="bold" font-size="14.00">Legende:</text>
<text text-anchor="start" x="11" y="-30.7" font-family="Times New Roman,serif" font-size="14.00" fill="blue">AND&#45;Verknüpfung</text>
<text text-anchor="start" x="11" y="-10.2" font-family="Times New Roman,serif" font-size="14.00">OR&#45;Verknüpfung</text>
<polygon fill="none" stroke="black" points="8,-4 8,-67.5 118.25,-67.5 118.25,-4 8,-4"/>
<g id="clust1" class="cluster">
<title>cluster_0</title>
<polygon fill="none" stroke="blue" points="25.98,-152 25.98,-228.5 219.98,-228.5 219.98,-152 25.98,-152"/>
<text text-anchor="middle" x="122.98" y="-211.2" font-family="Times New Roman,serif" font-size="14.00">Gruppe A und B</text>
</g>
<!-- 1 -->
<g id="node1" class="node">
<title>1</title>
<ellipse fill="none" stroke="black" cx="122.98" cy="-289" rx="28.83" ry="18"/>
<text text-anchor="middle" x="122.98" y="-283.95" font-family="Times New Roman,serif" font-size="14.00">Root</text>
</g>
<!-- 2 -->
<g id="node2" class="node">
<title>2</title>
<ellipse fill="none" stroke="black" cx="73.98" cy="-178" rx="40.09" ry="18"/>
<text text-anchor="middle" x="73.98" y="-172.95" font-family="Times New Roman,serif" font-size="14.00">Child A</text>
</g>
<!-- 1&#45;&gt;2 -->
<g id="edge1" class="edge">
<title>1&#45;&gt;2</title>
<path fill="none" stroke="black" d="M115.54,-271.45C107.78,-254.18 95.48,-226.83 86.28,-206.35"/>
<polygon fill="black" stroke="black" points="89.57,-205.14 82.28,-197.45 83.18,-208.01 89.57,-205.14"/>
<text text-anchor="middle" x="115.76" y="-239.7" font-family="Times New Roman,serif" font-size="14.00">0.5</text>
</g>
<!-- 3 -->
<g id="node3" class="node">
<title>3</title>
<ellipse fill="none" stroke="black" cx="171.98" cy="-178" rx="40.09" ry="18"/>
<text text-anchor="middle" x="171.98" y="-172.95" font-family="Times New Roman,serif" font-size="14.00">Child B</text>
</g>
<!-- 1&#45;&gt;3 -->
<g id="edge2" class="edge">
<title>1&#45;&gt;3</title>
<path fill="none" stroke="black" d="M130.42,-271.45C138.18,-254.18 150.48,-226.83 159.69,-206.35"/>
<polygon fill="black" stroke="black" points="162.78,-208.01 163.69,-197.45 156.39,-205.14 162.78,-208.01"/>
<text text-anchor="middle" x="154.64" y="-239.7" font-family="Times New Roman,serif" font-size="14.00">0.7</text>
</g>
<!-- 4 -->
<g id="node4" class="node">
<title>4</title>
<ellipse fill="none" stroke="black" cx="56.98" cy="-89.5" rx="56.98" ry="18"/>
<text text-anchor="middle" x="56.98" y="-84.45" font-family="Times New Roman,serif" font-size="14.00">Subchild A1</text>
</g>
<!-- 2&#45;&gt;4 -->
<g id="edge3" class="edge">
<title>2&#45;&gt;4</title>
<path fill="none" stroke="red" d="M70.62,-159.91C68.33,-148.26 65.24,-132.55 62.59,-119.02"/>
<polygon fill="red" stroke="red" points="66.05,-118.47 60.68,-109.34 59.18,-119.82 66.05,-118.47"/>
<text text-anchor="middle" x="75.63" y="-128.7" font-family="Times New Roman,serif" font-size="14.00">0.3</text>
</g>
<!-- 5 -->
<g id="node5" class="node">
<title>5</title>
<ellipse fill="none" stroke="black" cx="188.98" cy="-89.5" rx="56.98" ry="18"/>
<text text-anchor="middle" x="188.98" y="-84.45" font-family="Times New Roman,serif" font-size="14.00">Subchild B1</text>
</g>
<!-- 3&#45;&gt;5 -->
<g id="edge4" class="edge">
<title>3&#45;&gt;5</title>
<path fill="none" stroke="green" d="M175.34,-159.91C177.63,-148.26 180.72,-132.55 183.38,-119.02"/>
<polygon fill="green" stroke="green" points="186.79,-119.82 185.28,-109.34 179.92,-118.47 186.79,-119.82"/>
<text text-anchor="middle" x="190.63" y="-128.7" font-family="Times New Roman,serif" font-size="14.00">0.2</text>
</g>
</g>
</svg>
