<?xml version="1.0" encoding="UTF-8" standalone="no"?>
<!DOCTYPE svg PUBLIC "-//W3C//DTD SVG 1.1//EN"
 "http://www.w3.org/Graphics/SVG/1.1/DTD/svg11.dtd">
<!-- Generated by graphviz version 12.1.1 (20240910.0053)
 -->
<!-- Pages: 1 -->
<svg width="449pt" height="632pt"
 viewBox="0.00 0.00 449.00 631.50" xmlns="http://www.w3.org/2000/svg" xmlns:xlink="http://www.w3.org/1999/xlink">
<g id="graph0" class="graph" transform="scale(1 1) rotate(0) translate(4 627.5)">
<polygon fill="white" stroke="none" points="-4,4 -4,-627.5 445,-627.5 445,4 -4,4"/>
<g id="clust1" class="cluster">
<title>cluster_0</title>
<polygon fill="none" stroke="black" stroke-dasharray="5,2" points="8,-311.39 8,-456.5 198,-456.5 198,-311.39 8,-311.39"/>
<text text-anchor="middle" x="103.38" y="-441.1" font-family="Times New Roman,serif" font-size="12.00">AND Group: Just (Total Prob.: 0.30)</text>
</g>
<g id="clust2" class="cluster">
<title>cluster_1</title>
<polygon fill="none" stroke="black" stroke-dasharray="5,2" points="232,-8 232,-82.25 433,-82.25 433,-8 232,-8"/>
<text text-anchor="middle" x="332.62" y="-66.85" font-family="Times New Roman,serif" font-size="12.00">AND Group: Name (Total Prob.: 0.20)</text>
</g>
<!-- e373b305&#45;49f6&#45;4594&#45;a2d5&#45;aa8c0e5e1851 -->
<g id="node1" class="node">
<title>e373b305&#45;49f6&#45;4594&#45;a2d5&#45;aa8c0e5e1851</title>
<polygon fill="none" stroke="black" points="208,-623.5 154,-623.5 154,-587.5 208,-587.5 208,-623.5"/>
<text text-anchor="start" x="166" y="-601.45" font-family="Times New Roman,serif" font-weight="bold" font-size="14.00">Node</text>
</g>
<!-- 97ae38bc&#45;4f8b&#45;47fa&#45;98aa&#45;dc42f1e52bfb -->
<g id="node2" class="node">
<title>97ae38bc&#45;4f8b&#45;47fa&#45;98aa&#45;dc42f1e52bfb</title>
<polygon fill="none" stroke="black" points="115.88,-535 24.12,-535 24.12,-499 115.88,-499 115.88,-535"/>
<text text-anchor="start" x="51.62" y="-518.7" font-family="Times New Roman,serif" font-weight="bold" font-size="14.00">Aaron</text>
<text text-anchor="start" x="32.12" y="-504.7" font-family="Times New Roman,serif" font-size="14.00">OS: Windows</text>
</g>
<!-- e373b305&#45;49f6&#45;4594&#45;a2d5&#45;aa8c0e5e1851&#45;&gt;97ae38bc&#45;4f8b&#45;47fa&#45;98aa&#45;dc42f1e52bfb -->
<g id="edge3" class="edge">
<title>e373b305&#45;49f6&#45;4594&#45;a2d5&#45;aa8c0e5e1851&#45;&gt;97ae38bc&#45;4f8b&#45;47fa&#45;98aa&#45;dc42f1e52bfb</title>
<path fill="none" stroke="black" d="M158.8,-587.2C142.24,-574.3 119.4,-556.5 101.03,-542.18"/>
<polygon fill="black" stroke="black" points="103.39,-539.58 93.35,-536.2 99.09,-545.1 103.39,-539.58"/>
<text text-anchor="middle" x="144.07" y="-556.2" font-family="Times New Roman,serif" font-size="14.00">0,2</text>
</g>
<!-- a4978918&#45;fb3a&#45;42f1&#45;afba&#45;beaef9c4e521 -->
<g id="node3" class="node">
<title>a4978918&#45;fb3a&#45;42f1&#45;afba&#45;beaef9c4e521</title>
<polygon fill="none" stroke="black" points="188,-535 134,-535 134,-499 188,-499 188,-535"/>
<text text-anchor="start" x="143.75" y="-512.95" font-family="Times New Roman,serif" font-weight="bold" font-size="14.00">Detlef</text>
</g>
<!-- e373b305&#45;49f6&#45;4594&#45;a2d5&#45;aa8c0e5e1851&#45;&gt;a4978918&#45;fb3a&#45;42f1&#45;afba&#45;beaef9c4e521 -->
<g id="edge4" class="edge">
<title>e373b305&#45;49f6&#45;4594&#45;a2d5&#45;aa8c0e5e1851&#45;&gt;a4978918&#45;fb3a&#45;42f1&#45;afba&#45;beaef9c4e521</title>
<path fill="none" stroke="black" d="M177.05,-587.41C174.35,-575.76 170.72,-560.05 167.59,-546.52"/>
<polygon fill="black" stroke="black" points="171.02,-545.78 165.35,-536.82 164.2,-547.36 171.02,-545.78"/>
<text text-anchor="middle" x="181.42" y="-556.2" font-family="Times New Roman,serif" font-size="14.00">0,2</text>
</g>
<!-- 85b186cc&#45;45cc&#45;4e05&#45;a44c&#45;484f5f3d96e0 -->
<g id="node4" class="node">
<title>85b186cc&#45;45cc&#45;4e05&#45;a44c&#45;484f5f3d96e0</title>
<polygon fill="none" stroke="black" points="270.38,-535 205.62,-535 205.62,-499 270.38,-499 270.38,-535"/>
<text text-anchor="start" x="213.62" y="-512.95" font-family="Times New Roman,serif" font-weight="bold" font-size="14.00">Dietram</text>
</g>
<!-- e373b305&#45;49f6&#45;4594&#45;a2d5&#45;aa8c0e5e1851&#45;&gt;85b186cc&#45;45cc&#45;4e05&#45;a44c&#45;484f5f3d96e0 -->
<g id="edge5" class="edge">
<title>e373b305&#45;49f6&#45;4594&#45;a2d5&#45;aa8c0e5e1851&#45;&gt;85b186cc&#45;45cc&#45;4e05&#45;a44c&#45;484f5f3d96e0</title>
<path fill="none" stroke="black" d="M192.26,-587.41C200.25,-575.29 211.13,-558.77 220.28,-544.89"/>
<polygon fill="black" stroke="black" points="223.15,-546.89 225.73,-536.61 217.31,-543.04 223.15,-546.89"/>
<text text-anchor="middle" x="223.23" y="-556.2" font-family="Times New Roman,serif" font-size="14.00">0,3</text>
</g>
<!-- 596eac6d&#45;db2e&#45;402b&#45;89d0&#45;9fdc2ded63c1 -->
<g id="node5" class="node">
<title>596eac6d&#45;db2e&#45;402b&#45;89d0&#45;9fdc2ded63c1</title>
<polygon fill="none" stroke="black" points="342,-535 288,-535 288,-499 342,-499 342,-535"/>
<text text-anchor="start" x="301.88" y="-512.95" font-family="Times New Roman,serif" font-weight="bold" font-size="14.00">Eike</text>
</g>
<!-- e373b305&#45;49f6&#45;4594&#45;a2d5&#45;aa8c0e5e1851&#45;&gt;596eac6d&#45;db2e&#45;402b&#45;89d0&#45;9fdc2ded63c1 -->
<g id="edge6" class="edge">
<title>e373b305&#45;49f6&#45;4594&#45;a2d5&#45;aa8c0e5e1851&#45;&gt;596eac6d&#45;db2e&#45;402b&#45;89d0&#45;9fdc2ded63c1</title>
<path fill="none" stroke="black" d="M208.45,-587.11C217.26,-581.51 227.06,-575.26 236,-569.5 250.07,-560.44 265.49,-550.41 278.95,-541.62"/>
<polygon fill="black" stroke="black" points="280.63,-544.7 287.09,-536.3 276.8,-538.84 280.63,-544.7"/>
<text text-anchor="middle" x="268.56" y="-556.2" font-family="Times New Roman,serif" font-size="14.00">0,3</text>
</g>
<!-- 58b00d45&#45;5ae7&#45;41dd&#45;98c3&#45;b83e29427a85 -->
<g id="node6" class="node">
<title>58b00d45&#45;5ae7&#45;41dd&#45;98c3&#45;b83e29427a85</title>
<polygon fill="none" stroke="black" points="94,-426.25 40,-426.25 40,-390.25 94,-390.25 94,-426.25"/>
<text text-anchor="start" x="48.62" y="-404.2" font-family="Times New Roman,serif" font-weight="bold" font-size="14.00">Justus</text>
</g>
<!-- 97ae38bc&#45;4f8b&#45;47fa&#45;98aa&#45;dc42f1e52bfb&#45;&gt;58b00d45&#45;5ae7&#45;41dd&#45;98c3&#45;b83e29427a85 -->
<g id="edge7" class="edge">
<title>97ae38bc&#45;4f8b&#45;47fa&#45;98aa&#45;dc42f1e52bfb&#45;&gt;58b00d45&#45;5ae7&#45;41dd&#45;98c3&#45;b83e29427a85</title>
<path fill="none" stroke="black" d="M69.52,-498.85C69.06,-482.45 68.35,-457.41 67.81,-437.97"/>
<polygon fill="black" stroke="black" points="71.31,-438.12 67.53,-428.23 64.32,-438.32 71.31,-438.12"/>
<text text-anchor="middle" x="77.57" y="-467.7" font-family="Times New Roman,serif" font-size="14.00">0,1</text>
</g>
<!-- e983b196&#45;60f7&#45;4eac&#45;bf27&#45;9666ba548a12 -->
<g id="node7" class="node">
<title>e983b196&#45;60f7&#45;4eac&#45;bf27&#45;9666ba548a12</title>
<polygon fill="none" stroke="black" points="189.75,-426.25 112.25,-426.25 112.25,-390.25 189.75,-390.25 189.75,-426.25"/>
<text text-anchor="start" x="120.25" y="-404.2" font-family="Times New Roman,serif" font-weight="bold" font-size="14.00">Leonhardt</text>
</g>
<!-- 97ae38bc&#45;4f8b&#45;47fa&#45;98aa&#45;dc42f1e52bfb&#45;&gt;e983b196&#45;60f7&#45;4eac&#45;bf27&#45;9666ba548a12 -->
<g id="edge8" class="edge">
<title>97ae38bc&#45;4f8b&#45;47fa&#45;98aa&#45;dc42f1e52bfb&#45;&gt;e983b196&#45;60f7&#45;4eac&#45;bf27&#45;9666ba548a12</title>
<path fill="none" stroke="black" d="M83.01,-498.85C95.93,-481.83 115.9,-455.51 130.86,-435.79"/>
<polygon fill="black" stroke="black" points="133.58,-438 136.83,-427.92 128,-433.77 133.58,-438"/>
<text text-anchor="middle" x="116.7" y="-467.7" font-family="Times New Roman,serif" font-size="14.00">0,2</text>
</g>
<!-- e3e6d992&#45;0dff&#45;4976&#45;bc24&#45;79cb2bafc33a -->
<g id="node9" class="node">
<title>e3e6d992&#45;0dff&#45;4976&#45;bc24&#45;79cb2bafc33a</title>
<polygon fill="none" stroke="black" points="270.38,-337.75 205.62,-337.75 205.62,-301.75 270.38,-301.75 270.38,-337.75"/>
<text text-anchor="start" x="213.62" y="-315.7" font-family="Times New Roman,serif" font-weight="bold" font-size="14.00">Siegenot</text>
</g>
<!-- 85b186cc&#45;45cc&#45;4e05&#45;a44c&#45;484f5f3d96e0&#45;&gt;e3e6d992&#45;0dff&#45;4976&#45;bc24&#45;79cb2bafc33a -->
<g id="edge13" class="edge">
<title>85b186cc&#45;45cc&#45;4e05&#45;a44c&#45;484f5f3d96e0&#45;&gt;e3e6d992&#45;0dff&#45;4976&#45;bc24&#45;79cb2bafc33a</title>
<path fill="none" stroke="black" d="M238,-498.67C238,-465.02 238,-390.53 238,-349.41"/>
<polygon fill="black" stroke="black" points="241.5,-349.55 238,-339.55 234.5,-349.55 241.5,-349.55"/>
<text text-anchor="middle" x="246.62" y="-403.2" font-family="Times New Roman,serif" font-size="14.00">0,5</text>
</g>
<!-- 14695da4&#45;ba04&#45;49af&#45;aeeb&#45;0e54aba2e414 -->
<g id="node8" class="node">
<title>14695da4&#45;ba04&#45;49af&#45;aeeb&#45;0e54aba2e414</title>
<polygon fill="none" stroke="black" points="342,-426.25 288,-426.25 288,-390.25 342,-390.25 342,-426.25"/>
<text text-anchor="start" x="298.88" y="-404.2" font-family="Times New Roman,serif" font-weight="bold" font-size="14.00">Seppl</text>
</g>
<!-- 596eac6d&#45;db2e&#45;402b&#45;89d0&#45;9fdc2ded63c1&#45;&gt;14695da4&#45;ba04&#45;49af&#45;aeeb&#45;0e54aba2e414 -->
<g id="edge9" class="edge">
<title>596eac6d&#45;db2e&#45;402b&#45;89d0&#45;9fdc2ded63c1&#45;&gt;14695da4&#45;ba04&#45;49af&#45;aeeb&#45;0e54aba2e414</title>
<path fill="none" stroke="black" d="M315,-498.85C315,-482.45 315,-457.41 315,-437.97"/>
<polygon fill="black" stroke="black" points="318.5,-438.23 315,-428.23 311.5,-438.23 318.5,-438.23"/>
<text text-anchor="middle" x="318.38" y="-467.7" font-family="Times New Roman,serif" font-size="14.00">1</text>
</g>
<!-- dummy_0 -->
<g id="node17" class="node">
<title>dummy_0</title>
<ellipse fill="black" stroke="black" cx="151" cy="-319.75" rx="0.36" ry="0.36"/>
</g>
<!-- 58b00d45&#45;5ae7&#45;41dd&#45;98c3&#45;b83e29427a85&#45;&gt;dummy_0 -->
<g id="edge1" class="edge">
<title>58b00d45&#45;5ae7&#45;41dd&#45;98c3&#45;b83e29427a85&#45;&gt;dummy_0</title>
<path fill="none" stroke="black" d="M83.6,-390.16C101.57,-371.65 129.48,-342.91 143.05,-328.94"/>
<polygon fill="black" stroke="black" points="145.37,-331.58 149.82,-321.96 140.34,-326.7 145.37,-331.58"/>
</g>
<!-- e983b196&#45;60f7&#45;4eac&#45;bf27&#45;9666ba548a12&#45;&gt;dummy_0 -->
<g id="edge2" class="edge">
<title>e983b196&#45;60f7&#45;4eac&#45;bf27&#45;9666ba548a12&#45;&gt;dummy_0</title>
<path fill="none" stroke="black" d="M151,-390.16C151,-372.99 151,-347.01 151,-332.18"/>
<polygon fill="black" stroke="black" points="154.5,-332.39 151,-322.39 147.5,-332.39 154.5,-332.39"/>
</g>
<!-- 14695da4&#45;ba04&#45;49af&#45;aeeb&#45;0e54aba2e414&#45;&gt;e3e6d992&#45;0dff&#45;4976&#45;bc24&#45;79cb2bafc33a -->
<g id="edge10" class="edge">
<title>14695da4&#45;ba04&#45;49af&#45;aeeb&#45;0e54aba2e414&#45;&gt;e3e6d992&#45;0dff&#45;4976&#45;bc24&#45;79cb2bafc33a</title>
<path fill="none" stroke="black" d="M299.79,-390.16C288.68,-377.68 273.43,-360.55 260.86,-346.43"/>
<polygon fill="black" stroke="black" points="263.71,-344.37 254.45,-339.23 258.49,-349.03 263.71,-344.37"/>
<text text-anchor="middle" x="292.02" y="-358.95" font-family="Times New Roman,serif" font-size="14.00">0,2</text>
</g>
<!-- e0a993f5&#45;1e95&#45;42a4&#45;9fa0&#45;e0a3215d2d68 -->
<g id="node10" class="node">
<title>e0a993f5&#45;1e95&#45;42a4&#45;9fa0&#45;e0a3215d2d68</title>
<polygon fill="none" stroke="black" points="342,-337.75 288,-337.75 288,-301.75 342,-301.75 342,-337.75"/>
<text text-anchor="start" x="296.62" y="-315.7" font-family="Times New Roman,serif" font-weight="bold" font-size="14.00">Stefan</text>
</g>
<!-- 14695da4&#45;ba04&#45;49af&#45;aeeb&#45;0e54aba2e414&#45;&gt;e0a993f5&#45;1e95&#45;42a4&#45;9fa0&#45;e0a3215d2d68 -->
<g id="edge11" class="edge">
<title>14695da4&#45;ba04&#45;49af&#45;aeeb&#45;0e54aba2e414&#45;&gt;e0a993f5&#45;1e95&#45;42a4&#45;9fa0&#45;e0a3215d2d68</title>
<path fill="none" stroke="black" d="M315,-390.16C315,-378.51 315,-362.8 315,-349.27"/>
<polygon fill="black" stroke="black" points="318.5,-349.61 315,-339.61 311.5,-349.61 318.5,-349.61"/>
<text text-anchor="middle" x="323.62" y="-358.95" font-family="Times New Roman,serif" font-size="14.00">0,5</text>
</g>
<!-- b283e2f5&#45;a342&#45;4ad3&#45;93c0&#45;1dbf775e89d3 -->
<g id="node11" class="node">
<title>b283e2f5&#45;a342&#45;4ad3&#45;93c0&#45;1dbf775e89d3</title>
<polygon fill="none" stroke="black" points="401.5,-249.25 346.5,-249.25 346.5,-213.25 401.5,-213.25 401.5,-249.25"/>
<text text-anchor="start" x="354.5" y="-227.2" font-family="Times New Roman,serif" font-weight="bold" font-size="14.00"> Xaver</text>
</g>
<!-- 14695da4&#45;ba04&#45;49af&#45;aeeb&#45;0e54aba2e414&#45;&gt;b283e2f5&#45;a342&#45;4ad3&#45;93c0&#45;1dbf775e89d3 -->
<g id="edge12" class="edge">
<title>14695da4&#45;ba04&#45;49af&#45;aeeb&#45;0e54aba2e414&#45;&gt;b283e2f5&#45;a342&#45;4ad3&#45;93c0&#45;1dbf775e89d3</title>
<path fill="none" stroke="black" d="M325.92,-390.06C329.31,-384.46 332.95,-378.17 336,-372.25 343.65,-357.38 345.86,-353.66 351,-337.75 359.23,-312.28 365.43,-282.41 369.31,-260.96"/>
<polygon fill="black" stroke="black" points="372.74,-261.65 371.01,-251.19 365.85,-260.44 372.74,-261.65"/>
<text text-anchor="middle" x="369.25" y="-314.7" font-family="Times New Roman,serif" font-size="14.00">0,1</text>
</g>
<!-- 44c1ff13&#45;9723&#45;43fc&#45;8545&#45;d4102fcd6b02 -->
<g id="node14" class="node">
<title>44c1ff13&#45;9723&#45;43fc&#45;8545&#45;d4102fcd6b02</title>
<polygon fill="none" stroke="black" points="356,-160.75 302,-160.75 302,-124.75 356,-124.75 356,-160.75"/>
<text text-anchor="start" x="316.25" y="-138.7" font-family="Times New Roman,serif" font-weight="bold" font-size="14.00">Jens</text>
</g>
<!-- b283e2f5&#45;a342&#45;4ad3&#45;93c0&#45;1dbf775e89d3&#45;&gt;44c1ff13&#45;9723&#45;43fc&#45;8545&#45;d4102fcd6b02 -->
<g id="edge19" class="edge">
<title>b283e2f5&#45;a342&#45;4ad3&#45;93c0&#45;1dbf775e89d3&#45;&gt;44c1ff13&#45;9723&#45;43fc&#45;8545&#45;d4102fcd6b02</title>
<path fill="none" stroke="black" d="M365.11,-213.16C358.86,-201.15 350.38,-184.84 343.2,-171.05"/>
<polygon fill="black" stroke="black" points="346.44,-169.7 338.72,-162.44 340.23,-172.93 346.44,-169.7"/>
<text text-anchor="middle" x="364.16" y="-181.95" font-family="Times New Roman,serif" font-size="14.00">0,5</text>
</g>
<!-- 3663dd37&#45;8ae4&#45;44c6&#45;8b09&#45;e840fcb817b6 -->
<g id="node12" class="node">
<title>3663dd37&#45;8ae4&#45;44c6&#45;8b09&#45;e840fcb817b6</title>
<polygon fill="none" stroke="black" points="264.12,-249.25 191.88,-249.25 191.88,-213.25 264.12,-213.25 264.12,-249.25"/>
<text text-anchor="start" x="199.88" y="-227.2" font-family="Times New Roman,serif" font-weight="bold" font-size="14.00">Wilbrand</text>
</g>
<!-- 6f7a75f3&#45;4b9b&#45;488f&#45;bb8c&#45;c0f0a7571582 -->
<g id="node13" class="node">
<title>6f7a75f3&#45;4b9b&#45;488f&#45;bb8c&#45;c0f0a7571582</title>
<polygon fill="none" stroke="black" points="266.38,-160.75 189.62,-160.75 189.62,-124.75 266.38,-124.75 266.38,-160.75"/>
<text text-anchor="start" x="197.62" y="-138.7" font-family="Times New Roman,serif" font-weight="bold" font-size="14.00">Immanuel</text>
</g>
<!-- 3663dd37&#45;8ae4&#45;44c6&#45;8b09&#45;e840fcb817b6&#45;&gt;6f7a75f3&#45;4b9b&#45;488f&#45;bb8c&#45;c0f0a7571582 -->
<g id="edge15" class="edge">
<title>3663dd37&#45;8ae4&#45;44c6&#45;8b09&#45;e840fcb817b6&#45;&gt;6f7a75f3&#45;4b9b&#45;488f&#45;bb8c&#45;c0f0a7571582</title>
<path fill="none" stroke="black" d="M228,-213.16C228,-201.51 228,-185.8 228,-172.27"/>
<polygon fill="black" stroke="black" points="231.5,-172.61 228,-162.61 224.5,-172.61 231.5,-172.61"/>
<text text-anchor="middle" x="236.62" y="-181.95" font-family="Times New Roman,serif" font-size="14.00">0,5</text>
</g>
<!-- 3663dd37&#45;8ae4&#45;44c6&#45;8b09&#45;e840fcb817b6&#45;&gt;44c1ff13&#45;9723&#45;43fc&#45;8545&#45;d4102fcd6b02 -->
<g id="edge16" class="edge">
<title>3663dd37&#45;8ae4&#45;44c6&#45;8b09&#45;e840fcb817b6&#45;&gt;44c1ff13&#45;9723&#45;43fc&#45;8545&#45;d4102fcd6b02</title>
<path fill="none" stroke="black" d="M247.95,-213.16C262.93,-200.33 283.66,-182.58 300.4,-168.24"/>
<polygon fill="black" stroke="black" points="302.27,-171.25 307.59,-162.08 297.72,-165.93 302.27,-171.25"/>
<text text-anchor="middle" x="296.17" y="-181.95" font-family="Times New Roman,serif" font-size="14.00">0,4</text>
</g>
<!-- e6e84890&#45;656c&#45;443b&#45;90b2&#45;5c58590a87e0 -->
<g id="node15" class="node">
<title>e6e84890&#45;656c&#45;443b&#45;90b2&#45;5c58590a87e0</title>
<polygon fill="none" stroke="black" points="306,-52 252,-52 252,-16 306,-16 306,-52"/>
<text text-anchor="start" x="260.62" y="-29.95" font-family="Times New Roman,serif" font-weight="bold" font-size="14.00">Guido</text>
</g>
<!-- 44c1ff13&#45;9723&#45;43fc&#45;8545&#45;d4102fcd6b02&#45;&gt;e6e84890&#45;656c&#45;443b&#45;90b2&#45;5c58590a87e0 -->
<g id="edge17" class="edge">
<title>44c1ff13&#45;9723&#45;43fc&#45;8545&#45;d4102fcd6b02&#45;&gt;e6e84890&#45;656c&#45;443b&#45;90b2&#45;5c58590a87e0</title>
<path fill="none" stroke="black" d="M320.97,-124.6C313.14,-107.89 301.11,-82.21 291.94,-62.62"/>
<polygon fill="black" stroke="black" points="295.23,-61.41 287.82,-53.83 288.89,-64.37 295.23,-61.41"/>
<text text-anchor="middle" x="320.02" y="-93.45" font-family="Times New Roman,serif" font-size="14.00">0,1</text>
</g>
<!-- a5538644&#45;b2b0&#45;4a3d&#45;ad05&#45;28d8b994f81e -->
<g id="node16" class="node">
<title>a5538644&#45;b2b0&#45;4a3d&#45;ad05&#45;28d8b994f81e</title>
<polygon fill="none" stroke="black" points="412.38,-52 323.62,-52 323.62,-16 412.38,-16 412.38,-52"/>
<text text-anchor="start" x="331.62" y="-29.95" font-family="Times New Roman,serif" font-weight="bold" font-size="14.00">Hieronymus</text>
</g>
<!-- 44c1ff13&#45;9723&#45;43fc&#45;8545&#45;d4102fcd6b02&#45;&gt;a5538644&#45;b2b0&#45;4a3d&#45;ad05&#45;28d8b994f81e -->
<g id="edge18" class="edge">
<title>44c1ff13&#45;9723&#45;43fc&#45;8545&#45;d4102fcd6b02&#45;&gt;a5538644&#45;b2b0&#45;4a3d&#45;ad05&#45;28d8b994f81e</title>
<path fill="none" stroke="black" d="M335.27,-124.6C341.31,-108.04 350.58,-82.69 357.71,-63.17"/>
<polygon fill="black" stroke="black" points="360.96,-64.48 361.1,-53.88 354.38,-62.08 360.96,-64.48"/>
<text text-anchor="middle" x="355.96" y="-93.45" font-family="Times New Roman,serif" font-size="14.00">0,1</text>
</g>
<!-- dummy_0&#45;&gt;3663dd37&#45;8ae4&#45;44c6&#45;8b09&#45;e840fcb817b6 -->
<g id="edge14" class="edge">
<title>dummy_0&#45;&gt;3663dd37&#45;8ae4&#45;44c6&#45;8b09&#45;e840fcb817b6</title>
<path fill="none" stroke="black" d="M151.06,-318.69C152.53,-317.03 182.92,-282.89 205.06,-258.02"/>
<polygon fill="black" stroke="black" points="207.44,-260.61 211.48,-250.81 202.21,-255.96 207.44,-260.61"/>
<text text-anchor="middle" x="205.02" y="-270.45" font-family="Times New Roman,serif" font-size="14.00">0,2</text>
</g>
</g>
</svg>
